<svg xmlns="http://www.w3.org/2000/svg" viewBox="0 0 17.44 18.31"><title>資產 3</title><g id="圖層_2" data-name="圖層 2"><g id="圖層_1-2" data-name="圖層 1"><path class="cls-1" d="M9.44,0h.22c-.08.84,0,.91.63,1.1.34.1.69.18,1,.3A2.16,2.16,0,0,1,12.8,3.53c0,.82,0,1.64,0,2.47,0,.13,0,.34.1.39.28.18.22.42.18.67s-.08.5-.14.73a8,8,0,0,1-1,2.87l.12,1.67,0,0c.36.19.39.57.53.89a1,1,0,0,0,.39.46c1.35.73,2.7,1.45,4.07,2.16a.61.61,0,0,1,.38.62c0,.42,0,.84,0,1.25a2.42,2.42,0,0,1-.2.58H.21a2.74,2.74,0,0,1-.2-.62c0-.38,0-.76,0-1.14a.69.69,0,0,1,.44-.73c1.34-.69,2.68-1.4,4-2.11.1-.05.25-.11.28-.2.2-.45.25-1,.71-1.27,0-.63.38-1.28-.13-1.88a1.27,1.27,0,0,1-.25-.51q-.37-1.48-.71-3a.78.78,0,0,1,.09-.39c.06-.17.19-.33.19-.5,0-.79,0-1.57,0-2.36A2.21,2.21,0,0,1,6,1.46C6.57,1.16,7.2.91,7.83.65Z"/></g></g></svg>