<?xml version="1.0" encoding="utf-8"?>
<svg version="1.1" id="圖層_1" xmlns="http://www.w3.org/2000/svg" xmlns:xlink="http://www.w3.org/1999/xlink" x="0px" y="0px"
	 viewBox="0 0 30.1 32.6" style="enable-background:new 0 0 30.1 32.6;" xml:space="preserve">
<path class="st0" d="M22.1,32.6H1.2c-0.8-0.4-1.3-1.1-1.2-2C0,24.7,0,18.9,0,13c0-0.5,0.1-1,0.3-1.4C1,10.3,1.7,9.2,2.3,8
	c0.2-0.4,0.6-0.7,1.1-0.7c0.8,0,1.6,0,2.5,0c0-0.5,0-0.9,0.1-1.3c0-2.5,1.6-4.7,3.9-5.7c0.3,0,0.7-0.1,1.1-0.2h1.4
	c0.1,0,0.2,0.1,0.3,0.1c2.6,0.5,4.6,2.7,4.8,5.4c0.1,0.6,0.1,1.2,0.1,1.8h2.6c0.4,0,0.8,0.2,0.9,0.6c0.6,1.1,1.2,2.2,1.8,3.3
	c0.4,0.6,0.5,1.3,0.5,2c0,5.6,0,11.2,0,16.9C23.5,31.1,23,32.1,22.1,32.6z M21.7,30.8V12.7H1.6v18.1H21.7z M15.9,7.3
	c0.1-2-0.4-3.7-1.9-4.7c-1.4-1.1-3.3-1-4.7,0.1c-1.5,1-2,2.7-1.8,4.6H15.9z M7.5,10.8h8.4V9.1H7.5V10.8z M5.9,9.1
	c-0.8,0-1.5,0-2.1,0c-0.2,0-0.3,0.1-0.4,0.2c-0.3,0.5-0.5,1-0.8,1.5h3.3V9.1z M20.7,10.8c-0.3-0.6-0.6-1.1-0.8-1.5
	c-0.1-0.1-0.2-0.2-0.3-0.2c-0.7,0-1.4,0-2.1,0v1.7H20.7z"/>
<circle class="cart-dot" fill="#e8e8e8" style="fill: var(--dot-color)" cx="25.3" cy="4.6" r="4.6"/>
</svg>
