<svg xmlns="http://www.w3.org/2000/svg" viewBox="0 0 20.21 13.91"><defs><style>.cls-1{fill:#e8e8e8;fill-rule:evenodd;}</style></defs><title>toggle</title><g id="圖層_2" data-name="圖層 2"><g id="圖層_1-2" data-name="圖層 1"><path class="cls-1" d="M0,.4A1.06,1.06,0,0,1,1,0H19.52a.64.64,0,0,1,.69.65.65.65,0,0,1-.69.61H1a1,1,0,0,1-1-.4Z"/><path class="cls-1" d="M0,6.72a1.06,1.06,0,0,1,1-.4H19.52a.63.63,0,1,1,0,1.26H1a1,1,0,0,1-1-.4Z"/><path class="cls-1" d="M0,13a1.06,1.06,0,0,1,1-.4H19.52c.42,0,.71.29.69.65a.65.65,0,0,1-.69.62H1a1.06,1.06,0,0,1-1-.4Z"/></g></g></svg>